PathFileType	4	(X/Y/Z)	0331.trc
DataRate	CameraRate	NumFrames	NumMarkers	Units	OrigDataRate	OrigDataStartFrame	OrigNumFrames
120	120	7	27	m	120	881	1006
Frame#	Time	RHip			RKnee			RAnkle			RBigToe			RSmallToe			RHeel			LHip			LKnee			LAnkle			LBigToe			LSmallToe			LHeel			Nose			REye			LEye			RShoulder			RElbow			RWrist			RThumb			RIndex			RPinky			LShoulder			LElbow			LWrist			LThumb			LIndex			LPinky		
		X	Y	Z	X	Y	Z	X	Y	Z	X	Y	Z	X	Y	Z	X	Y	Z	X	Y	Z	X	Y	Z	X	Y	Z	X	Y	Z	X	Y	Z	X	Y	Z	X	Y	Z	X	Y	Z	X	Y	Z	X	Y	Z	X	Y	Z	X	Y	Z	X	Y	Z	X	Y	Z	X	Y	Z	X	Y	Z	X	Y	Z	X	Y	Z	X	Y	Z	X	Y	Z	X	Y	Z
884	7.366666666666666	0.0860932882991435	0.1357790677573972	0.9365286917935388	0.4614865087415038	-0.0116747761158859	1.067068747599362	0.676445040629622	-0.1939035827281844	0.8118476530581795	0.8488061096357795	-0.2592869269942563	0.8922448659823649	0.8322140242169157	-0.2686017158770275	0.8654313087652147	0.7098700559896469	-0.1840265092829432	0.7544834679072835	0.1881228368269427	0.3017422383958601	0.8840739144822867	0.2440962401394386	0.2112632635286948	0.4778810648679711	0.1201332510091672	0.2299304872876149	0.0860073144585291	0.2374563894218527	0.1029047984127929	0.0112019155270858	0.2403060884987633	0.1598751818428494	0.0096620850639598	0.084170277380389	0.2459720542069212	0.0396480771332011	0.1362602926558752	0.1601326394969056	1.5151150902097472	0.11078514940076	0.1618537967778203	1.5473184081719125	0.1617667034918642	0.1721403639269686	1.547982438061679	-0.0551426187903479	0.2764735003971607	1.365688073175037	-0.1574670081372065	0.2953919725855285	1.0952708367206063	-0.2076811247918765	0.2336702987273705	0.8509221760785926	-0.182181379348346	0.1930469785965104	0.7873064010798434	-0.2194955410655869	0.1872076893756748	0.7627735158996194	-0.2305487936024444	0.2422427230882352	0.7593770164663668	0.3109589885448817	0.389754100659226	1.3919042805244786	0.3972229982190267	0.120878398489618	1.3303992333925718	0.2183541934724844	0.0057698960067494	1.426916442837708	0.1336504292715199	0.0109289134792295	1.4390476712232736	0.1320637608278324	-0.0094465379172573	1.4675240080472816	0.1590257853631086	-0.0458431985134767	1.4553373674619936
885	7.375	0.0805485860616392	0.1393217837662302	0.9355605233950604	0.4577175357014043	-0.0205948931214042	1.0518672378984777	0.6718085100684275	-0.1857561581301368	0.7829598001838953	0.8465346349287094	-0.2532883385172431	0.8550409372515873	0.8278066482584068	-0.2636980415456276	0.8292602824674341	0.7027094765289713	-0.1744811625402603	0.7252026445737754	0.1835439287880918	0.3048313020360009	0.8842089514166896	0.2394028687798378	0.2153301704863911	0.4766237836080649	0.1182336152379702	0.2296862124007431	0.0838245415216864	0.2390586912324379	0.1040234958252019	0.0112856723525639	0.2405942926216371	0.160037932564536	0.0095897160642918	0.0824162906005234	0.2448065558228334	0.0368828713548957	0.137221487481744	0.1627008807154402	1.517541283318395	0.111643313902883	0.164181495653749	1.5497498188873038	0.1631690553674875	0.1755569251041462	1.5501282210092877	-0.0565356888003446	0.2708689513145912	1.366718545336542	-0.1616668321437836	0.2834731138620722	1.0977094651637491	-0.2117807473600763	0.2145181310540296	0.8559704413117704	-0.1866643670987944	0.1713331229882807	0.7924192997193922	-0.2246236806540514	0.1643110823042525	0.76885205034823	-0.2361605114162074	0.220162830304807	0.7645733317489192	0.3079988723976603	0.3954785576198968	1.3902796010797052	0.4055114356425353	0.1352533521991928	1.3247994330219597	0.2346114556095434	0.0068226141939659	1.4222099907310246	0.1499102155450165	0.0096420000827218	1.4361233671425904	0.149152969414394	-0.0120188846473657	1.4644546301249035	0.179086009601748	-0.0502337280157674	1.4517463779592688
886	7.383333333333334	0.0752798542772508	0.1421956003204434	0.9344478806734124	0.4524343537772548	-0.0301528513185989	1.0361446854721812	0.666040869373257	-0.1772260832629669	0.7543914826217842	0.8431391616858118	-0.2463346346113404	0.8179568566771434	0.8220031451129752	-0.2579301336704159	0.793254647223435	0.6943150884406358	-0.1647139968723359	0.6963135634699842	0.1787569061366793	0.3078975526691673	0.8841312813539323	0.2347626147850756	0.2191442607339863	0.47543866827677	0.1164530297276247	0.2293301416139305	0.0818814747486972	0.2406804433738077	0.1052167777347254	0.0115154867203519	0.2409500298281396	0.160330175375543	0.0096482266278288	0.08068114982851	0.2435144065814821	0.0344256947734948	0.1379992210977514	0.1650905180608752	1.5199941407464457	0.1123694308653821	0.1664664867520539	1.5521277645459923	0.16412905081434	0.1786576773056352	1.5522700419302	-0.0576155969721866	0.2654646476932329	1.3677866879517857	-0.1653365082749694	0.2715999849308627	1.100536079724032	-0.2152987808949989	0.1954940532034701	0.8615272279418178	-0.1905482644008344	0.1497522817609799	0.7981319609761233	-0.2291669373003766	0.1416529694112224	0.7755522959547635	-0.2412744366368652	0.1981891825794191	0.7703954439129448	0.3048906917644894	0.4010380555277709	1.3887088775332015	0.4137205440512141	0.1504413845259057	1.3187217383919425	0.2514963899182968	0.0089808063320621	1.4168836773740097	0.1674009230650521	0.0088619858705778	1.4326894513659023	0.1673412840220443	-0.014279035190821	1.4607027115797908	0.2000854903602731	-0.0540466729402206	1.447373905961057
887	7.391666666666667	0.0702237245465767	0.1444897220121596	0.9332767302192776	0.4467540818700767	-0.039139689407794	1.0199385984640623	0.6592119366782401	-0.1683273458455483	0.7262560983030282	0.8386664636753233	-0.238375434326124	0.7811563643181489	0.8149273842777589	-0.2512415861647681	0.7575759406851758	0.6847389162440919	-0.1547926081637129	0.6679401239610456	0.1738168123327166	0.3108524323945707	0.8839206454395117	0.2302426826445892	0.222704512849179	0.4743626566465042	0.1148259469528297	0.2289165194382209	0.080205670112289	0.2423006074058026	0.1065002173113034	0.011884134967431	0.2413622319926064	0.1607635889145859	0.0098474392689506	0.0790073433325193	0.2421584703391346	0.0323126029518545	0.1386040260331473	0.167299464686398	1.522453955984779	0.1129903050617976	0.1686917159987917	1.5544492728541677	0.1646802468900614	0.181465279625587	1.5544049688926578	-0.0584118458048276	0.2602912231851745	1.3688715898198571	-0.168482245575353	0.25979714341059	1.1036940607409167	-0.2182313500447567	0.1765970369991118	0.8674688303778995	-0.1937433831325237	0.1283602680963064	0.8043883849637212	-0.2329950209656067	0.1192810183277888	0.782771209418697	-0.2458618278066953	0.1762788030047451	0.7767107600859311	0.3015814061436571	0.4064297898034144	1.38719214147618	0.4216963868660702	0.1662819142773537	1.3122335444101294	0.2690008705688759	0.0123495008921922	1.4109529406629682	0.1861653542544192	0.0087504921315554	1.4287253379888238	0.1866289746691247	-0.016064249222129	1.4562256881302555	0.2219535495637354	-0.0569554416279777	1.442171983574788
888	7.4	0.0652427710627052	0.1464196424058927	0.9320559439547562	0.4414493901177183	-0.0467091925807171	1.003314174931384	0.6514195076505406	-0.1590597930283993	0.6986413523988554	0.8331758148125902	-0.229388448616497	0.7448073316376275	0.806710410653047	-0.243615924245552	0.7223820103636387	0.6741003745724105	-0.1447300724446413	0.6401740846659663	0.1688151945923114	0.3136020925619662	0.8836854314746474	0.225904094093179	0.2260055275911417	0.4734421216780322	0.1133847459941206	0.2285029496185632	0.078820812485055	0.2438995779976029	0.1078839361456522	0.0123867781355978	0.2418214242681144	0.1613433756881854	0.0101935324130591	0.0774410909719157	0.2408064916076825	0.030572339454452	0.1390662129601452	0.1693369550243965	1.5249088642158442	0.1135456346055561	0.17084454404242	1.5567199532364584	0.164890077035398	0.1840239750761443	1.556538943976625	-0.0589396975069836	0.2553735988899531	1.3699595632893582	-0.1711321783194147	0.2480857644149573	1.107119269667257	-0.2205815027620971	0.1578654109861773	0.8736860687603255	-0.1962309258877674	0.1072482763580769	0.8111168772928209	-0.2360206168000237	0.0972829909362461	0.7903965458635553	-0.2498831758948357	0.1544453829170448	0.7833842551615362	0.2980314628803568	0.4116516104822177	1.3857303360421072	0.4292148649175155	0.1825465863459422	1.3053964917438083	0.2870267513058501	0.0169135160697049	1.4044356295949092	0.2061548796035414	0.009409459392295	1.424206016086026	0.2069414825706425	-0.0172365479911185	1.4509903330728742	0.2445454854833879	-0.0587046161242815	1.4360949472202995
889	7.408333333333333	0.0602586571224975	0.1482014654344381	0.930814351915806	0.4369451677630849	-0.0523782596838737	0.986353568549404	0.6427815096780121	-0.1493976000137352	0.6716057804235357	0.826732838706294	-0.2193870695477043	0.7090667658445421	0.7974804913855568	-0.2350685948976988	0.6878160827095142	0.6625608091223956	-0.1344668832501423	0.613078807929039	0.1638804162113974	0.3160777649170441	0.8835568170985221	0.221784282783732	0.2290431760454968	0.4727393119554686	0.1121522500368738	0.2281489100207893	0.0777437973661836	0.2454640933217202	0.1093712587345222	0.0130242880812419	0.2423195082084296	0.1620659923250377	0.0106918394138968	0.0760265614690515	0.2395251469683612	0.029216810184521	0.139437970648313	0.1712267241078978	1.5273588192033507	0.1140857396968338	0.1729180017099915	1.5589565452313734	0.164855957786853	0.1863989973167055	1.5586861271171972	-0.0591893584844913	0.250719557490396	1.3710547118352308	-0.1733256510157161	0.2364872407896875	1.1107497609243653	-0.2223561875235934	0.1393858592297228	0.8800968252483735	-0.1980456008480096	0.0865367147113027	0.8182456627000052	-0.2382038178471344	0.0757754820975683	0.798327761176155	-0.2532928389847623	0.132776483414157	0.7903031946341141	0.2942274084007715	0.4167048418425527	1.3843243093732651	0.4360292510317782	0.1989707644189912	1.2982557059764834	0.3053730607580266	0.0225530516694151	1.397360649161569	0.2272081803798418	0.0108793880947937	1.4191040497766825	0.2281158240154431	-0.0176893151292999	1.444981000537073	0.2676247565987233	-0.0591468473879738	1.4291095912254683
890	7.416666666666667	0.0553555521732085	0.1499271603011507	0.9296524256000456	0.4333963578624175	-0.055940397788825	0.969140342479687	0.6334240163470565	-0.1393079283469709	0.6451820911356995	0.8193958163510365	-0.2084253954916356	0.6740716751079938	0.787355646289849	-0.2256507094691678	0.6540015781445756	0.6502854799106009	-0.1239019615427203	0.5866947587600935	0.1591389065964745	0.3182469465486263	0.8836506508714658	0.217891100212093	0.2318357028737712	0.4723363851681154	0.1111373511837083	0.2279070234972645	0.0769792769075879	0.2469902577322928	0.1109539366518596	0.0137993538806298	0.2428568909517515	0.1629215387795106	0.0113477001460855	0.0748019492247733	0.2383759482252931	0.028230518201548	0.1397888303246197	0.1730109553498834	1.5298167379104328	0.1146604080808737	0.1749118976897117	1.5611864393238286	0.1647006604680146	0.1886729486906346	1.5608659514428462	-0.0591381142482899	0.2463175472166127	1.3721773059938327	-0.175101470062241	0.2250291720483577	1.1145327005303935	-0.2235596669808945	0.1212720205185728	0.8866485179814639	-0.1992200139082506	0.0663450968228895	0.8257102581115887	-0.2395228194778674	0.0548709320751448	0.8064856152487829	-0.2560511995015177	0.1114117531859055	0.7973950506424377	0.2901878479022931	0.4215921992546759	1.3829709153053409	0.4419109169602271	0.2152815386146396	1.290855046423814	0.3237821614674844	0.0290956617182226	1.3897712274889962	0.2490811629135963	0.0131686692188847	1.4133989369734572	0.2499269583537628	-0.0173341163085501	1.4382089446340176	0.2908891568354979	-0.0582369080807385	1.4212082220302704
